<?xml version="1.0" standalone="no"?>
<!DOCTYPE svg PUBLIC "-//W3C//DTD SVG 20010904//EN"
 "http://www.w3.org/TR/2001/REC-SVG-20010904/DTD/svg10.dtd">
<svg version="1.0" xmlns="http://www.w3.org/2000/svg"
 width="2400.000000pt" height="512.000000pt" viewBox="0 0 2400.000000 512.000000"
 preserveAspectRatio="xMidYMid meet">
<g transform="translate(0.000000,512.000000) scale(0.100000,-0.100000)"
fill="#000000" stroke="none">
<path d="M13064 3593 c-12 -2 -46 -27 -75 -54 l-54 -50 -5 -107 -5 -107 -50
-5 c-48 -5 -50 -6 -53 -39 -4 -41 8 -51 66 -51 27 0 42 -5 42 -12 0 -7 2 -107
3 -223 l2 -210 38 1 c52 2 52 0 47 142 -3 70 -5 165 -5 212 l0 85 75 3 c85 3
102 13 98 56 l-3 31 -85 5 -85 5 1 60 c1 138 30 172 138 161 37 -4 64 -2 72 5
17 14 18 71 2 87 -11 11 -116 15 -164 5z"/>
<path d="M15791 3591 c-20 -13 -18 -840 2 -853 16 -10 49 -10 65 0 20 13 21
840 1 853 -18 11 -50 11 -68 0z"/>
<path d="M16050 3587 c-14 -10 -15 -65 -13 -426 3 -452 1 -441 58 -427 l24 6
3 413 c2 226 -1 420 -5 430 -9 20 -45 22 -67 4z"/>
<path d="M9045 3550 c-210 -58 -328 -203 -326 -405 1 -138 27 -208 109 -290
105 -105 145 -120 318 -120 112 0 135 3 151 18 11 9 26 17 34 17 32 0 61 31
54 59 -11 43 -53 55 -87 24 -23 -21 -249 -32 -288 -13 -107 49 -162 109 -181
199 -37 171 16 311 149 387 66 38 259 42 292 6 34 -37 120 -28 120 12 -2 76
-214 142 -345 106z"/>
<path d="M21004 3549 c-112 -32 -151 -203 -69 -303 32 -40 47 -86 27 -86 -5 0
-27 -12 -50 -27 -136 -92 -132 -287 7 -371 70 -42 255 -40 319 3 23 16 42 32
42 37 0 21 37 4 71 -33 34 -37 42 -41 70 -35 63 12 63 23 -1 87 l-59 58 19 38
c42 84 52 110 57 158 7 68 -10 90 -57 78 l-35 -9 -6 -81 c-11 -147 -30 -143
-180 37 -46 56 -54 80 -27 80 6 0 20 7 30 17 10 9 28 21 39 27 67 34 102 199
52 246 -12 10 -23 23 -24 27 -24 53 -133 79 -225 52z m172 -139 c22 -66 -26
-151 -99 -179 -52 -20 -111 102 -89 184 6 22 20 36 53 51 l44 22 40 -22 c27
-16 43 -33 51 -56z m-80 -357 c27 -32 72 -81 101 -110 60 -59 61 -63 32 -89
-71 -64 -230 -57 -295 13 -39 42 -35 140 8 189 62 70 92 70 154 -3z"/>
<path d="M13569 3542 c-58 -7 -58 -4 -59 -411 -1 -267 1 -376 10 -385 20 -20
454 -21 474 -1 15 15 14 51 -1 78 -2 4 -82 7 -178 7 -95 0 -180 3 -189 6 -25
10 -24 249 1 263 11 5 77 7 165 4 l147 -6 10 26 c11 28 5 57 -13 70 -6 4 -74
4 -152 1 -187 -9 -178 -15 -175 127 1 63 6 118 10 122 5 5 91 9 192 10 l184 2
10 29 c20 58 -10 67 -224 64 -102 -2 -198 -4 -212 -6z"/>
<path d="M19048 3537 c-10 -11 -13 -90 -11 -397 3 -432 1 -421 70 -404 l38 9
2 389 c2 271 -1 394 -8 403 -15 17 -74 17 -91 0z"/>
<path d="M19879 3536 c-14 -15 -11 -39 7 -65 16 -22 21 -23 133 -20 l116 4 1
-354 c2 -380 1 -371 54 -371 54 0 53 -10 51 369 l-2 351 128 0 c87 0 133 4
141 12 16 16 15 65 0 74 -19 12 -617 11 -629 0z"/>
<path d="M22059 3518 c-16 -18 -32 -44 -36 -58 -3 -14 -13 -41 -23 -60 -21
-43 -60 -142 -60 -154 0 -10 -31 -80 -61 -138 -10 -20 -19 -42 -19 -48 0 -10
-13 -41 -71 -166 -11 -22 -19 -44 -19 -49 0 -5 -6 -16 -14 -24 -40 -46 -20
-95 37 -89 34 3 70 55 82 118 4 19 11 41 17 48 6 6 14 27 17 45 l7 32 184 0
185 0 9 -30 c5 -16 18 -48 28 -71 10 -22 18 -48 18 -58 0 -24 36 -73 59 -81
48 -15 93 35 57 64 -8 7 -17 24 -20 39 -4 15 -13 41 -21 57 -42 90 -65 145
-65 158 0 8 -6 20 -14 26 -8 7 -18 27 -21 44 -4 18 -13 41 -20 53 -8 12 -17
37 -20 57 -4 20 -13 41 -21 48 -7 6 -16 27 -20 48 -4 20 -15 47 -25 60 -11 13
-19 32 -19 43 0 22 -25 75 -48 101 -23 26 -50 21 -83 -15z m67 -158 c37 -77
54 -119 54 -130 0 -6 7 -24 15 -38 25 -46 45 -104 39 -113 -7 -12 -261 -12
-268 0 -6 9 -1 21 45 113 11 20 19 43 19 50 0 7 8 29 19 48 10 19 22 50 26 68
8 39 33 40 51 2z"/>
<path d="M22582 3538 c-20 -20 -17 -781 3 -798 15 -12 85 -6 85 8 5 75 1 782
-4 791 -9 15 -69 14 -84 -1z"/>
<path d="M10750 3415 c-8 -9 -11 -38 -9 -77 l4 -63 -42 -3 c-49 -4 -66 -20
-57 -56 6 -26 19 -32 74 -38 l25 -3 0 -215 0 -214 33 -10 c55 -16 57 -8 57
227 l0 212 68 5 c68 5 87 16 87 50 0 31 -17 39 -85 42 l-70 3 3 50 c5 72 -10
105 -47 105 -15 0 -34 -7 -41 -15z"/>
<path d="M6408 3267 c-29 -17 -30 -20 -22 -70 4 -29 7 -346 6 -706 l-1 -654
27 -26 c43 -40 265 -36 300 6 l24 28 -6 370 c-7 420 -10 403 70 416 88 14 272
11 304 -6 43 -22 44 -33 37 -435 -8 -446 -25 -405 163 -405 93 0 132 4 144 14
14 12 16 58 16 463 l0 449 -25 52 c-60 125 -122 149 -373 143 -187 -4 -187 -4
-242 -35 -78 -44 -78 -44 -96 -37 -13 5 -15 18 -9 79 24 268 21 340 -17 363
-28 18 -268 10 -300 -9z"/>
<path d="M9689 3278 c-63 -11 -113 -49 -166 -123 -45 -65 -43 -239 5 -307 63
-91 108 -112 247 -116 133 -3 163 5 179 50 20 57 -62 74 -147 31 -25 -13 -34
-13 -68 1 -22 9 -48 16 -58 16 -30 0 -79 48 -90 87 -17 61 -11 63 190 63 166
0 179 1 189 19 14 28 12 74 -5 107 -8 16 -15 36 -15 45 0 29 -97 116 -138 123
-20 4 -44 8 -52 10 -8 2 -40 -1 -71 -6z m106 -91 c51 -26 95 -82 95 -122 l0
-26 -147 3 -148 3 -3 36 c-4 45 28 82 95 108 62 24 55 25 108 -2z"/>
<path d="M15358 3275 c-180 -39 -257 -310 -129 -456 24 -27 49 -49 54 -49 6 0
19 -8 30 -17 23 -22 200 -31 263 -14 49 13 77 58 53 87 -15 18 -88 12 -146
-12 -29 -13 -37 -12 -63 1 -16 8 -42 15 -58 15 -55 0 -130 116 -91 141 8 5 93
9 190 9 122 0 179 4 187 12 17 17 14 89 -3 112 -8 11 -15 28 -15 39 0 21 -33
64 -79 102 -36 31 -126 45 -193 30z m101 -79 c7 -8 23 -17 36 -20 27 -7 75
-80 75 -114 0 -22 -3 -22 -149 -22 -88 0 -152 4 -156 10 -19 31 43 130 82 130
11 0 26 7 33 15 16 19 64 20 79 1z"/>
<path d="M1325 3271 c-123 -51 -145 -406 -38 -616 35 -67 105 -155 122 -152
19 3 37 71 46 174 4 48 15 114 26 145 10 32 19 65 19 75 0 10 12 50 25 88 45
126 21 258 -52 286 -29 11 -120 11 -148 0z"/>
<path d="M2044 3273 c-12 -2 -30 -13 -40 -24 -9 -10 -22 -19 -28 -19 -16 0
-151 -145 -210 -225 -66 -91 -146 -210 -146 -218 0 -4 -15 -29 -33 -55 -18
-26 -47 -77 -65 -114 -18 -38 -37 -68 -43 -68 -5 0 -9 -9 -9 -20 0 -26 25 -26
81 0 24 11 58 20 75 20 16 0 39 7 50 15 10 8 31 15 45 15 15 0 38 9 52 20 14
11 32 20 40 20 8 0 26 9 40 20 14 11 28 20 31 20 22 0 226 177 226 196 0 5 21
34 61 82 70 84 93 252 44 310 -27 32 -88 41 -171 25z"/>
<path d="M10263 3270 c-13 -5 -23 -13 -23 -17 0 -5 -9 -14 -20 -21 -18 -11
-21 -9 -30 13 -9 23 -15 26 -47 23 l-38 -3 -3 -259 c-3 -279 -3 -276 49 -276
46 0 50 15 47 197 -3 187 11 235 72 250 14 3 32 12 42 20 14 13 22 12 67 -8
80 -34 81 -36 81 -249 0 -200 3 -210 51 -210 49 0 52 13 44 222 -8 214 -14
235 -84 294 -38 31 -158 45 -208 24z"/>
<path d="M11188 3270 c-29 -9 -45 -20 -90 -65 -105 -105 -105 -307 0 -402 20
-18 45 -41 55 -51 16 -14 39 -17 152 -17 l135 0 32 33 c60 59 -9 87 -124 51
-68 -22 -178 12 -211 64 -15 22 -27 54 -27 69 l0 28 198 2 197 3 0 56 c-1 171
-150 279 -317 229z m144 -82 c48 -18 78 -57 81 -105 l2 -38 -144 -5 c-78 -3
-148 -2 -153 1 -34 21 25 110 97 148 42 22 56 22 117 -1z"/>
<path d="M11810 3274 c-8 -4 -31 -24 -51 -45 -39 -41 -49 -38 -49 17 0 20 -5
24 -27 24 -50 0 -50 -1 -55 -268 l-5 -253 25 -10 c64 -25 66 -20 73 156 8 231
37 285 153 284 32 -1 62 3 66 7 14 15 21 58 11 73 -10 15 -113 26 -141 15z"/>
<path d="M12382 3263 c-44 -22 -109 -97 -138 -160 -28 -61 -33 -163 -10 -182
8 -7 18 -25 21 -41 7 -32 102 -126 142 -141 32 -12 175 -11 208 1 53 20 142
125 154 181 17 79 1 196 -31 235 -52 61 -104 105 -136 114 -57 15 -172 12
-210 -7z m178 -79 c49 -17 100 -64 100 -93 0 -9 7 -26 15 -37 25 -33 1 -136
-45 -192 -47 -57 -192 -59 -253 -4 -49 44 -77 193 -42 222 8 7 15 18 15 25 0
23 50 66 93 80 56 17 64 17 117 -1z"/>
<path d="M14123 3273 c-28 -11 -2 -61 71 -141 46 -50 53 -58 75 -90 l23 -33
-20 -22 c-11 -12 -31 -35 -43 -51 -13 -15 -41 -47 -61 -71 -21 -23 -38 -45
-38 -49 0 -3 -9 -15 -20 -26 -38 -38 20 -82 67 -52 19 12 103 125 103 139 0 7
5 13 10 13 6 0 15 11 20 25 13 34 53 34 68 0 21 -46 127 -175 149 -181 49 -13
90 38 50 63 -7 4 -25 24 -40 43 -56 68 -102 124 -119 142 -10 10 -18 23 -18
28 0 17 64 100 133 172 51 53 27 116 -34 88 -23 -10 -66 -65 -81 -102 -4 -10
-11 -18 -16 -18 -5 0 -15 -14 -22 -31 -21 -49 -46 -35 -110 59 -69 102 -93
117 -147 95z"/>
<path d="M14820 3272 c-41 -19 -101 -65 -117 -89 -10 -16 -23 -32 -30 -36 -7
-4 -13 -19 -13 -32 0 -14 -7 -43 -16 -65 -32 -80 55 -280 122 -280 7 0 17 -8
23 -17 15 -28 240 -26 271 2 72 65 46 83 -113 77 l-125 -5 -35 36 c-72 71 -69
228 6 287 29 23 39 25 150 25 104 0 120 2 129 18 12 23 -13 64 -48 77 -29 11
-181 12 -204 2z"/>
<path d="M16420 3272 c-114 -56 -164 -138 -165 -272 0 -120 23 -165 126 -240
31 -23 45 -25 149 -28 144 -4 185 12 185 68 l0 35 -49 -2 c-27 -1 -68 -9 -91
-17 -37 -15 -45 -15 -78 -1 -20 8 -45 15 -56 15 -51 0 -126 118 -89 141 7 5
95 9 196 9 l182 0 12 26 c9 20 9 33 -1 57 -7 18 -16 47 -21 65 -23 94 -93 144
-205 149 -44 1 -87 -1 -95 -5z m140 -84 c50 -23 90 -79 90 -127 0 -21 -3 -21
-148 -21 -167 0 -162 -1 -152 46 10 43 50 84 104 105 54 22 51 22 106 -3z"/>
<path d="M17035 3273 c-11 -3 -32 -16 -47 -30 l-27 -26 -12 27 c-11 23 -18 27
-48 24 l-36 -3 -3 -254 c-3 -273 -1 -281 49 -281 41 0 44 11 44 185 0 184 18
248 73 261 15 4 37 14 50 22 20 13 27 12 66 -9 74 -39 78 -54 75 -260 -4 -196
-3 -199 52 -199 49 0 52 13 46 225 -7 212 -12 230 -81 294 -26 25 -147 39
-201 24z"/>
<path d="M17595 3260 c-52 -27 -123 -105 -136 -151 -6 -19 -9 -78 -8 -130 4
-105 35 -161 118 -218 80 -55 284 -39 313 25 20 44 -7 59 -89 47 -173 -25
-263 32 -263 165 1 141 86 201 253 178 80 -11 105 2 93 48 -14 58 -194 81
-281 36z"/>
<path d="M18130 3273 c-32 -12 -91 -66 -121 -111 -31 -46 -32 -50 -32 -157 0
-120 24 -180 91 -223 15 -9 29 -20 32 -24 23 -30 232 -40 295 -14 46 20 67 62
40 82 -22 16 -104 10 -147 -12 -22 -12 -33 -11 -68 1 -24 8 -51 15 -62 15 -48
0 -121 119 -87 142 8 4 87 7 177 5 193 -4 202 -1 202 71 0 109 -71 211 -158
226 -45 7 -141 7 -162 -1z m129 -77 c7 -8 22 -17 34 -20 13 -3 35 -24 50 -47
53 -81 38 -90 -139 -87 l-139 3 2 29 c6 79 151 172 192 122z"/>
<path d="M19456 3273 c-41 -6 -153 -123 -162 -168 -15 -84 0 -218 31 -263 58
-86 103 -107 229 -107 81 0 110 3 114 13 2 7 15 17 27 22 31 12 105 106 105
133 0 12 7 31 15 41 19 25 20 110 1 125 -8 7 -17 27 -20 46 -7 37 -100 140
-142 156 -25 9 -141 10 -198 2z m129 -83 c3 -5 14 -10 22 -10 52 0 123 -100
123 -172 0 -40 -37 -130 -64 -153 -62 -57 -200 -50 -250 12 -50 63 -70 159
-41 197 8 11 15 27 15 35 0 51 171 130 195 91z"/>
<path d="M3181 3080 l-34 -17 2 -548 c2 -452 5 -554 17 -576 8 -16 14 -35 14
-43 0 -23 78 -76 110 -76 15 0 46 -7 69 -15 26 -9 91 -15 184 -17 l144 -2 26
29 c24 27 26 38 27 116 0 129 -12 141 -137 137 -137 -4 -131 -17 -135 292 -2
196 0 247 11 257 9 8 48 10 136 6 148 -7 152 -4 156 117 5 137 -20 157 -170
141 -131 -14 -136 -11 -127 89 9 115 3 121 -145 125 -94 2 -121 -1 -148 -15z"/>
<path d="M18578 3074 c-10 -21 -9 -31 3 -52 l15 -27 134 0 133 0 10 28 c6 19
6 37 -2 53 -10 24 -13 24 -146 24 l-135 0 -12 -26z"/>
<path d="M4180 2904 c-223 -79 -253 -145 -253 -554 0 -336 23 -426 127 -495
29 -19 63 -35 75 -35 12 0 38 -7 58 -15 28 -12 88 -15 301 -15 259 0 266 1
316 24 100 48 162 164 148 282 -7 64 -26 74 -143 74 -107 0 -149 -18 -149 -65
0 -54 -49 -75 -177 -75 -188 0 -259 51 -251 180 l3 55 348 5 c294 4 349 7 358
20 6 9 8 93 7 210 -4 218 -10 242 -88 320 -83 83 -92 85 -395 87 -148 1 -277
0 -285 -3z m416 -250 c54 -25 71 -48 77 -104 11 -92 16 -90 -216 -90 -111 0
-207 4 -213 8 -44 29 -12 141 52 183 37 24 250 26 300 3z"/>
<path d="M5381 2890 c-24 -11 -47 -20 -53 -20 -23 0 -91 -68 -115 -115 -62
-122 -65 -679 -5 -796 39 -77 115 -139 169 -139 17 0 36 -7 43 -15 15 -18 544
-23 555 -5 3 5 23 14 44 20 103 27 164 137 165 295 l1 110 -138 3 -137 3 -10
-26 c-6 -15 -10 -38 -10 -53 -1 -33 -29 -68 -65 -82 -45 -17 -232 -13 -272 7
-50 23 -53 40 -53 284 0 287 0 287 241 277 112 -4 149 -26 149 -89 0 -52 27
-70 116 -76 165 -11 184 2 184 130 0 144 -48 227 -162 280 l-57 27 -273 0
c-250 0 -277 -2 -317 -20z"/>
<path d="M2304 2648 c-25 -27 -28 -210 -3 -249 13 -21 647 -14 669 7 25 24 27
203 3 233 l-19 23 -317 2 c-296 2 -318 1 -333 -16z"/>
<path d="M1370 2422 c-16 -26 -30 -52 -30 -58 0 -6 -9 -19 -20 -29 -11 -10
-20 -25 -20 -34 0 -9 -7 -26 -15 -38 -8 -11 -17 -40 -21 -64 -4 -24 -14 -55
-23 -69 -12 -17 -17 -55 -19 -140 l-3 -115 30 -30 c59 -59 68 -65 97 -65 18 0
34 7 42 20 7 11 17 20 23 20 13 0 45 39 72 89 25 46 29 196 8 321 -18 109 -20
182 -4 187 7 3 15 -8 18 -24 4 -15 10 -35 16 -43 5 -8 14 -26 20 -40 6 -14 15
-32 20 -40 5 -8 15 -26 22 -40 93 -188 369 -409 560 -447 60 -12 167 58 167
110 0 22 -42 99 -81 149 -30 37 -168 148 -185 148 -4 0 -14 7 -23 15 -26 25
-91 65 -105 65 -8 0 -19 6 -25 14 -7 8 -24 17 -39 21 -15 4 -34 12 -42 20 -8
7 -26 16 -40 20 -14 4 -32 13 -40 19 -8 7 -42 22 -75 35 -33 12 -78 31 -100
41 -22 10 -66 21 -98 24 l-58 5 -29 -47z"/>
<path d="M17721 2393 c-48 -10 -131 -65 -160 -106 -17 -23 -36 -48 -42 -56
-20 -23 -28 -102 -28 -286 0 -95 -3 -192 -7 -214 -10 -63 3 -71 106 -71 111 0
114 3 106 107 -24 304 -15 392 45 426 64 36 141 15 185 -50 17 -25 19 -49 19
-253 l0 -225 89 -3 c49 -2 94 2 99 7 20 20 8 447 -15 517 -20 63 -96 164 -122
164 -8 0 -26 10 -41 22 -29 22 -169 35 -234 21z"/>
<path d="M18460 2390 c-36 -4 -81 -14 -100 -23 -19 -8 -43 -18 -53 -21 -31
-10 -40 -53 -21 -108 20 -63 32 -66 103 -34 145 65 310 6 311 -111 0 -27 -43
-32 -74 -8 -27 21 -183 20 -210 0 -11 -8 -26 -15 -34 -15 -27 0 -110 -80 -123
-118 -15 -45 -12 -145 5 -187 17 -39 90 -105 117 -105 11 0 34 -7 50 -16 45
-23 172 16 241 74 18 14 28 6 28 -24 0 -28 17 -34 93 -34 92 0 89 -4 87 161
-2 250 -14 373 -41 426 -25 49 -75 102 -97 103 -7 0 -25 9 -40 19 -32 23 -142
32 -242 21z m206 -425 c37 -24 39 -41 14 -89 -74 -138 -264 -111 -252 37 1 9
23 31 50 48 53 35 138 37 188 4z"/>
<path d="M19183 2390 c-162 -24 -248 -172 -181 -308 30 -59 131 -117 236 -136
46 -8 102 -53 102 -82 0 -31 -63 -74 -109 -74 -37 0 -188 47 -197 61 -9 16
-42 10 -48 -8 -2 -10 -7 -43 -11 -74 l-6 -56 53 -26 c29 -14 71 -28 93 -31 22
-3 65 -10 95 -16 43 -7 60 -6 84 5 16 8 40 15 53 15 28 0 114 44 135 68 132
155 29 324 -227 376 -44 9 -88 53 -81 80 3 11 6 24 6 27 0 3 18 14 39 24 38
17 42 17 128 -5 151 -38 137 -40 151 28 7 33 10 66 7 74 -16 41 -208 76 -322
58z"/>
<path d="M19800 2391 c-122 -17 -210 -112 -210 -227 0 -32 5 -56 14 -63 8 -7
17 -22 20 -35 9 -37 86 -79 211 -115 87 -25 115 -46 115 -87 0 -82 -178 -93
-296 -17 -42 27 -56 9 -69 -88 l-6 -46 52 -26 c28 -15 66 -27 85 -27 18 0 52
-7 75 -16 35 -15 48 -15 93 -4 28 7 70 16 92 21 52 10 110 49 143 96 38 53 36
177 -3 224 -33 39 -88 77 -124 85 -15 4 -36 13 -47 20 -11 8 -33 14 -50 14
-34 0 -115 53 -115 75 0 48 85 86 149 66 20 -6 55 -15 78 -21 23 -6 45 -15 48
-20 3 -6 15 -10 25 -10 19 0 23 9 34 75 2 17 7 40 11 53 16 49 -181 93 -325
73z"/>
<path d="M21185 2391 c-197 -26 -371 -285 -302 -450 9 -20 18 -48 21 -63 18
-83 168 -218 243 -218 12 0 38 -7 56 -16 66 -32 249 34 323 116 75 82 94 136
94 260 0 250 -182 406 -435 371z m147 -200 c69 -30 93 -76 93 -176 -1 -71 -4
-85 -25 -112 -61 -76 -167 -95 -238 -43 -187 135 -40 423 170 331z"/>
<path d="M21920 2381 c-19 -11 -44 -24 -56 -29 -25 -12 -84 -78 -84 -94 0 -6
-7 -20 -17 -30 -16 -17 -41 -537 -27 -560 9 -14 180 -9 192 5 6 8 6 77 -1 208
-11 227 -4 275 48 312 61 44 158 11 171 -59 3 -18 4 -131 2 -251 l-3 -218 100
0 100 0 -3 230 c-4 261 -2 271 60 305 50 26 77 23 122 -15 35 -28 39 -83 26
-350 -5 -104 -3 -154 4 -162 12 -13 181 -22 192 -10 4 4 6 124 5 268 -3 318
-16 356 -151 437 -61 37 -230 41 -277 6 -57 -42 -70 -46 -108 -30 -19 8 -35
19 -35 24 0 33 -205 43 -260 13z"/>
<path d="M20450 2372 c-19 -11 -47 -22 -61 -25 -41 -10 -125 -109 -160 -187
-6 -16 -9 -72 -7 -150 6 -178 48 -251 190 -325 80 -43 317 -42 379 1 l40 27
-7 71 c-4 39 -9 74 -11 79 -7 12 -52 8 -81 -7 -120 -62 -284 -4 -313 109 -44
176 104 284 301 219 63 -20 72 -14 94 67 22 76 18 84 -46 114 -70 33 -261 37
-318 7z"/>
<path d="M12169 2329 c-8 -16 -10 -55 -6 -126 l5 -103 -27 6 c-14 3 -39 15
-56 27 -38 27 -145 30 -172 5 -10 -9 -30 -21 -44 -27 -92 -35 -142 -291 -72
-375 35 -42 84 -86 97 -86 8 0 19 -7 26 -15 17 -20 133 -21 149 -1 7 8 26 18
42 21 16 4 31 11 34 16 10 16 23 10 27 -12 4 -30 33 -48 50 -31 14 14 29 640
17 692 -7 35 -53 40 -70 9z m-59 -294 c115 -104 52 -311 -97 -323 -79 -6 -120
18 -158 93 -40 79 -24 165 42 227 42 39 171 41 213 3z"/>
<path d="M12608 2328 c-14 -23 -16 -636 -2 -680 13 -41 58 -34 67 12 6 27 27
44 27 21 0 -5 21 -21 46 -35 101 -56 223 -18 304 94 33 46 38 243 8 277 -10
11 -18 24 -18 29 0 12 -48 56 -90 81 -46 28 -96 36 -147 25 -40 -9 -51 -16
-94 -55 -32 -29 -39 -12 -32 87 8 123 0 166 -31 166 -14 0 -30 -10 -38 -22z
m347 -304 c73 -79 66 -219 -16 -283 -63 -49 -229 -24 -229 35 0 6 -6 17 -14
23 -41 34 -28 155 23 213 57 64 182 71 236 12z"/>
<path d="M15140 2301 c-23 -44 7 -91 60 -91 57 0 96 76 51 100 -34 18 -99 12
-111 -9z"/>
<path d="M15660 2305 c-18 -21 -3 -68 33 -107 18 -18 45 -53 61 -78 17 -25 35
-49 40 -55 6 -5 30 -38 54 -73 l42 -63 0 -144 c0 -171 17 -208 70 -155 24 24
24 22 20 178 -2 119 9 182 32 182 5 0 16 16 24 35 8 19 18 35 23 35 5 0 11 8
15 18 3 9 21 37 41 62 19 25 39 55 45 68 5 12 14 22 19 22 16 0 24 59 11 75
-26 31 -70 12 -105 -47 -5 -9 -28 -46 -50 -83 -22 -36 -47 -80 -57 -96 -36
-67 -48 -72 -74 -36 -13 18 -28 42 -33 55 -6 12 -15 22 -21 22 -5 0 -10 6 -10
14 0 7 -18 36 -40 64 -22 27 -40 54 -40 60 0 11 -64 62 -78 62 -5 0 -15 -7
-22 -15z"/>
<path d="M16761 2312 c-93 -10 -165 -101 -158 -200 l5 -63 -49 -49 c-102 -102
-96 -232 15 -319 21 -17 46 -31 55 -31 9 0 25 -7 35 -15 27 -21 149 -21 166 0
7 8 20 15 30 15 10 0 28 8 41 19 23 19 24 19 65 -15 24 -20 52 -34 68 -34 32
0 46 28 23 45 -10 7 -17 17 -17 22 0 6 -11 18 -25 27 -27 18 -27 44 0 76 8 8
17 29 21 45 4 17 14 40 21 52 25 37 13 67 -27 71 -40 4 -60 -16 -60 -59 0 -15
-10 -40 -23 -54 l-22 -26 -70 73 c-114 120 -145 156 -145 166 0 5 -7 15 -15
22 -22 18 -18 80 6 109 38 46 183 42 195 -5 12 -48 78 -61 94 -18 14 36 13 37
-19 71 -55 58 -127 84 -210 75z m-59 -369 c82 -93 134 -149 146 -156 18 -12
15 -64 -4 -71 -31 -12 -149 -6 -174 9 -14 8 -35 19 -47 24 -48 22 -56 141 -13
200 31 41 52 39 92 -6z"/>
<path d="M13912 2297 c-7 -8 -11 -128 -13 -336 -3 -353 -1 -362 55 -345 42 12
44 24 38 264 -5 255 -3 263 50 174 18 -30 43 -72 55 -92 13 -20 30 -52 38 -69
8 -18 19 -33 24 -33 6 0 13 -9 16 -20 14 -44 74 -21 103 40 14 29 23 45 74
123 21 32 38 61 38 65 0 5 14 21 30 37 l30 29 0 -247 c-1 -136 2 -251 5 -257
13 -21 55 -11 56 13 7 189 0 650 -10 660 -25 25 -86 -37 -122 -125 -6 -16 -15
-28 -20 -28 -5 0 -15 -15 -24 -32 -18 -39 -32 -63 -62 -101 -13 -16 -23 -34
-23 -41 0 -16 -38 -51 -47 -43 -3 4 -11 15 -17 26 -6 10 -29 49 -51 85 -63
105 -78 130 -118 200 -39 68 -77 87 -105 53z"/>
<path d="M15448 2253 c-9 -10 -18 -36 -20 -58 -3 -38 -5 -40 -38 -43 -47 -5
-62 -19 -58 -56 3 -28 6 -31 43 -34 22 -2 44 -8 50 -13 10 -10 9 -199 -1 -325
-7 -78 6 -104 51 -104 42 0 46 26 43 238 l-3 197 58 3 58 3 -3 42 -3 42 -55 5
-55 5 -5 55 c-6 61 -30 78 -62 43z"/>
<path d="M8885 2135 c-27 -15 -57 -33 -65 -41 -13 -13 -16 -10 -26 18 -8 25
-17 33 -35 33 l-24 0 -5 -335 c-6 -357 -4 -373 38 -368 l27 3 3 128 c3 123 10
148 32 108 5 -11 23 -22 39 -26 16 -3 35 -13 42 -21 53 -65 267 52 285 155 3
20 10 50 14 68 20 80 -47 230 -115 259 -18 7 -35 18 -37 24 -8 26 -121 23
-173 -5z m174 -91 c103 -72 105 -228 5 -306 -47 -38 -161 -34 -201 7 -88 89
-87 207 1 289 36 32 154 38 195 10z"/>
<path d="M9420 2146 c-14 -9 -36 -21 -50 -28 -33 -17 -70 -50 -70 -62 0 -5
-10 -20 -22 -33 -33 -35 -33 -212 1 -268 31 -52 87 -105 110 -105 10 0 24 -7
31 -15 17 -21 155 -21 163 -1 3 8 20 17 37 21 32 7 100 66 100 87 0 6 7 20 16
30 31 33 24 192 -10 250 -28 48 -78 98 -98 98 -6 0 -20 7 -29 16 -26 24 -146
30 -179 10z m208 -124 c18 -18 32 -41 32 -51 0 -10 7 -24 15 -31 32 -27 -8
-148 -65 -197 -48 -40 -169 -41 -217 -3 -63 52 -97 177 -59 219 9 9 16 24 16
33 0 72 214 95 278 30z"/>
<path d="M10658 2153 c-14 -3 -32 -11 -38 -19 -7 -8 -21 -14 -32 -14 -19 0
-88 -66 -88 -85 0 -5 -7 -23 -16 -40 -47 -89 -19 -230 62 -305 24 -22 50 -40
58 -40 7 0 19 -7 26 -15 14 -17 145 -22 155 -5 3 5 23 14 43 20 41 12 87 62
78 85 -7 20 -65 19 -87 -1 -35 -31 -152 -31 -199 0 -50 33 -72 67 -68 103 l3
28 144 -3 c79 -2 158 -1 176 2 91 17 58 181 -51 255 -40 28 -108 41 -166 34z
m104 -93 c23 0 88 -68 88 -92 0 -15 -16 -17 -140 -20 -158 -3 -160 -3 -160 21
0 49 97 105 164 95 16 -2 37 -4 48 -4z"/>
<path d="M11154 2153 c-12 -2 -30 -13 -40 -24 -21 -23 -37 -24 -54 -4 -13 16
-55 20 -64 6 -3 -4 -8 -114 -11 -244 -5 -252 -2 -267 44 -267 39 0 44 23 42
203 l-2 172 31 33 c27 27 38 32 79 32 37 0 52 5 69 23 24 26 29 56 10 62 -26
7 -84 12 -104 8z"/>
<path d="M13523 2153 c-16 -3 -26 -15 -33 -43 -6 -22 -15 -42 -20 -45 -6 -3
-10 -14 -10 -23 0 -10 -9 -35 -20 -57 -11 -22 -20 -44 -20 -50 0 -6 -9 -28
-20 -50 -11 -22 -20 -45 -20 -51 0 -7 -4 -24 -10 -39 -12 -33 -46 -19 -56 23
-4 15 -12 34 -19 42 -7 8 -16 29 -20 47 -3 17 -12 37 -20 43 -7 6 -16 26 -19
44 -4 19 -13 39 -21 46 -8 7 -15 21 -15 30 0 29 -49 80 -76 80 -32 0 -34 -59
-4 -97 11 -14 20 -31 20 -38 0 -7 6 -18 14 -24 8 -7 18 -27 21 -44 4 -18 13
-39 20 -47 7 -8 16 -29 20 -47 3 -17 13 -37 21 -44 8 -6 14 -17 14 -23 0 -6
12 -33 26 -60 28 -52 27 -124 -1 -156 -21 -24 -56 -133 -46 -143 15 -15 73
-13 80 3 4 8 17 34 29 57 12 23 22 53 22 67 0 14 4 27 9 31 5 3 17 30 25 60 9
30 21 57 26 60 6 3 10 14 10 23 0 9 11 40 25 67 13 28 25 60 25 71 0 12 6 27
14 33 8 7 18 27 22 44 3 18 15 43 25 56 11 13 19 32 19 42 0 10 7 34 17 53 13
29 14 38 3 51 -13 15 -17 16 -57 8z"/>
<path d="M9780 2130 c-12 -23 -5 -60 22 -110 10 -19 18 -44 18 -55 0 -11 7
-30 15 -41 8 -12 19 -39 24 -60 22 -88 69 -211 89 -231 15 -15 42 -2 42 21 0
6 9 28 20 49 11 20 20 44 20 53 0 9 9 31 19 48 10 17 22 45 25 61 4 17 18 38
31 47 23 18 24 17 30 -15 4 -17 15 -48 25 -67 37 -73 50 -106 56 -137 5 -26
13 -35 41 -44 41 -13 53 -3 53 46 0 17 9 48 20 70 11 22 20 49 20 60 0 11 9
38 20 60 11 21 23 55 26 74 4 20 13 44 22 53 25 30 22 132 -4 136 -26 4 -74
-71 -74 -115 0 -16 -8 -44 -19 -63 -10 -19 -21 -53 -25 -74 -14 -74 -50 -108
-62 -58 -4 15 -15 43 -26 62 -10 19 -18 42 -18 50 0 9 -6 22 -12 28 -7 7 -17
30 -23 50 -19 67 -86 50 -100 -26 -4 -20 -12 -43 -18 -51 -11 -13 -25 -45 -50
-119 -16 -45 -26 -37 -54 43 -13 39 -29 84 -34 100 -6 17 -16 53 -22 80 -17
79 -72 122 -97 75z"/>
<path d="M11389 2121 c-52 -33 -86 -72 -96 -109 -3 -14 -12 -37 -19 -51 -22
-41 -17 -127 9 -180 22 -46 102 -131 123 -131 6 0 17 -7 24 -15 9 -11 32 -15
80 -15 48 0 71 4 80 15 7 8 23 15 36 15 27 0 86 58 82 80 -4 22 -66 25 -88 5
-12 -11 -44 -18 -94 -22 l-76 -6 -50 50 c-53 53 -66 97 -32 107 9 3 81 4 160
2 205 -4 225 9 190 124 -20 64 -56 119 -84 126 -13 3 -28 12 -35 20 -23 28
-157 18 -210 -15z m192 -67 c26 -7 83 -84 71 -96 -13 -13 -281 -13 -295 1 -10
10 -2 25 36 74 25 30 120 41 188 21z"/>
<path d="M14740 2124 c-93 -67 -120 -120 -120 -238 0 -71 4 -93 25 -131 24
-46 86 -105 110 -105 7 0 18 -7 25 -15 17 -21 152 -21 169 -1 7 8 25 18 41 21
35 8 75 66 57 84 -17 17 -58 13 -80 -6 -15 -14 -37 -18 -101 -18 -97 0 -137
23 -156 88 -19 66 -12 68 177 65 189 -3 183 -6 182 87 0 65 -40 137 -88 161
-13 7 -28 17 -34 23 -23 23 -168 12 -207 -15z m183 -69 c32 -5 40 -12 58 -51
12 -25 20 -47 18 -49 -7 -7 -276 -8 -287 -1 -31 19 31 92 91 107 31 7 45 6
120 -6z"/>
<path d="M15176 2128 c-17 -28 -30 -463 -15 -491 13 -22 65 -23 73 -1 11 28 7
474 -4 495 -14 25 -36 24 -54 -3z"/>
</g>
</svg>
